<?xml version="1.0" encoding="UTF-8" standalone="no"?>
<svg
   xmlns="http://www.w3.org/2000/svg"
   version="1.1"
   width="36.092499"
   height="102.38087">

  <g transform="translate(-341.01781,-481.17175)">
    <g transform="matrix(1.25,0,0,-1.25,359.06468,506.51275)">
      <path d="m 0,0 c 3.334,0 6.037,2.703 6.037,6.037 0,3.334 -2.703,6.037 -6.037,6.037 -3.334,0 -6.036,-2.703 -6.036,-6.037 C -6.036,2.703 -3.334,0 0,0"
        style="fill:#95aad6; stroke:black; stroke-width: 0.5px;" />
    </g>
    <g transform="matrix(1.25,0,0,-1.25,367.39906,508.44512)">
      <path d="m 0,0 c 4.271,0 7.769,-3.464 7.769,-7.733 l 0,-18.722 c 0,-1.46 -1.147,-2.643 -2.607,-2.643 -1.46,0 -2.645,1.183 -2.645,2.643 l 0,16.88 -1.361,0 0,-46.969 c 0,-1.958 -1.6,-3.542 -3.556,-3.542 -1.957,0 -3.542,1.584 -3.542,3.542 l 0,27.273 -1.452,0 0,-27.273 c 0,-1.958 -1.586,-3.542 -3.541,-3.542 -1.956,0 -3.542,1.584 -3.542,3.542 0,2.895 -0.031,46.969 -0.031,46.969 l -1.346,0 0,-16.88 c 0,-1.46 -1.183,-2.643 -2.643,-2.643 -1.461,0 -2.608,1.183 -2.608,2.643 l 0,18.722 c 0,4.269 3.498,7.733 7.769,7.733 L 0,0 z"
        style="fill:#95aad6; stroke:black; stroke-width: 0.5px;" />
    </g>
  </g>
</svg>
